<svg xmlns="http://www.w3.org/2000/svg" viewBox="0 0 571 512" role="img" aria-label="Form to Function logo" preserveAspectRatio="xMidYMid meet">
  <path d="M 84.00 24.00 L 84.00 82.00 L 256.00 83.00 L 256.00 487.00 L 311.00 487.00 L 311.00 83.00 L 485.00 82.00 L 485.00 24.00 Z M 545.00 143.00 L 351.00 144.00 L 351.00 487.00 L 405.00 487.00 L 405.00 328.00 L 407.00 326.00 L 495.00 326.00 L 495.00 271.00 L 407.00 271.00 L 405.00 269.00 L 405.00 200.00 L 546.00 198.00 Z M 24.00 143.00 L 24.00 199.00 L 159.00 198.00 L 161.00 200.00 L 161.00 269.00 L 159.00 271.00 L 72.00 271.00 L 72.00 326.00 L 160.00 327.00 L 160.00 487.00 L 215.00 487.00 L 215.00 143.00 Z" fill="#fff"/>
</svg>
